<svg width="53" height="16" viewBox="0 0 53 16" fill="none" xmlns="http://www.w3.org/2000/svg">
<path d="M1.96 12V7.136H4.008C6.36 7.136 7.688 6 7.688 3.968C7.688 1.968 6.376 0.848 4.008 0.848H0.824V12H1.96ZM1.96 1.904H3.896C5.64 1.904 6.536 2.608 6.536 3.984C6.536 5.36 5.64 6.08 3.896 6.08H1.96V1.904ZM12.0322 12.128C14.2882 12.128 15.8242 10.368 15.8242 8.048C15.8242 5.712 14.2722 3.984 12.0322 3.984C9.77619 3.984 8.25619 5.712 8.25619 8.048C8.25619 10.384 9.77619 12.128 12.0322 12.128ZM12.0322 11.152C10.3522 11.152 9.36019 9.84 9.36019 8.048C9.36019 6.272 10.3362 4.96 12.0322 4.96C13.7122 4.96 14.7202 6.256 14.7202 8.048C14.7202 9.808 13.7282 11.152 12.0322 11.152ZM21.41 3.968C20.29 3.968 19.394 4.4 18.802 5.168V4.112H17.698V15.264H18.802V10.944C19.378 11.68 20.258 12.128 21.41 12.128C23.714 12.128 24.914 10.4 24.914 8.048C24.914 5.584 23.602 3.968 21.41 3.968ZM21.25 11.152C19.586 11.152 18.706 9.84 18.706 8.048C18.706 6.176 19.666 4.944 21.25 4.944C22.85 4.944 23.81 6.176 23.81 8.048C23.81 9.84 22.93 11.152 21.25 11.152ZM31.7563 7.744C31.7563 9.792 30.9723 11.152 29.4043 11.152C27.9003 11.152 27.6763 9.952 27.6763 8.672V4.112H26.5723V8.944C26.5723 10.896 27.3563 12.128 29.1483 12.128C30.1883 12.128 31.1963 11.712 31.7563 10.864V12H32.8603V4.112H31.7563V7.744ZM36.8644 12.128C37.2164 12.128 37.6164 12.032 37.9524 11.92L37.9364 10.976C37.6964 11.056 37.4244 11.12 37.1844 11.12C36.6564 11.12 36.4644 10.768 36.4644 10.224V0.848H35.3604V10.288C35.3604 11.52 35.9524 12.128 36.8644 12.128ZM42.1173 3.984C40.7733 3.984 39.7493 4.496 38.9013 5.6L39.7013 6.272C40.3413 5.392 41.1093 4.96 42.1013 4.96C43.4293 4.96 44.1493 5.712 44.1493 7.088V7.456H42.5333C40.9813 7.456 40.1333 7.6 39.5253 7.952C38.9493 8.304 38.6293 8.912 38.6293 9.712C38.6293 11.232 39.6373 12.128 41.3493 12.128C42.5973 12.128 43.5573 11.664 44.1813 10.784L44.2453 12H45.2533V7.088C45.2533 5.12 44.1013 3.984 42.1173 3.984ZM41.6693 11.216C40.4853 11.216 39.7333 10.656 39.7333 9.776C39.7333 9.328 39.8773 8.976 40.1653 8.752C40.5493 8.448 41.1733 8.352 42.6293 8.352H44.1493V8.464C44.1493 10.144 43.1893 11.216 41.6693 11.216ZM51.0283 3.984C50.2283 3.984 49.2683 4.256 48.6923 5.296V4.112H47.5883V12H48.6923V7.6C48.6923 5.888 49.5883 4.976 50.8043 4.976C51.1403 4.976 51.4763 5.056 51.8443 5.216L52.3883 4.32C51.9563 4.08 51.5083 3.984 51.0283 3.984Z" fill="white"/>
</svg>
