<svg width="450" height="378" viewBox="0 0 450 378" fill="none" xmlns="http://www.w3.org/2000/svg">
<path d="M217.957 2.44373C217.78 2.48915 216.308 1.43446 216.06 1.34867C214.687 0.783413 213.25 0.390158 211.78 0.177909C206.625 -0.634559 202.558 1.33353 200.342 6.1276C198.521 10.0739 197.63 14.4239 197.094 18.7133C196.689 21.9732 197.15 26.7068 195.126 29.4621C193.532 31.632 191.62 33.5446 190.35 35.9416C188.661 39.131 187.315 42.7845 187.507 46.4381C187.537 47.1698 188.403 52.5997 189.303 52.5997H233.822C233.822 52.5997 237.106 45.3077 231.359 33.2973C230.392 31.2788 230.559 27.8876 230.413 25.7278C230.063 20.4896 232.042 14.8528 230.792 9.6752C230.109 6.84923 228.46 3.55394 225.606 2.43869C223.36 1.54548 220.249 1.83817 217.957 2.44373Z" fill="url(#paint0_linear_8841_6498)"/>
<path d="M241.588 50.4953C241.588 50.4953 227.721 40.3016 223.34 40.3016H205.815C203.142 40.6088 200.576 41.5275 198.318 42.9863C193.846 45.4641 185.296 50.899 178.512 59.3265L169.325 65.0592V70.8827H257.65C257.65 70.8827 249.616 55.5871 241.588 50.4953Z" fill="url(#paint1_linear_8841_6498)"/>
<g style="mix-blend-mode:multiply" opacity="0.5">
<path d="M226.861 50.0463C226.861 50.0463 228.768 58.0852 228.884 61.6782L227.873 66.6438L230.68 64.8473C230.68 64.8473 231.207 59.7908 226.861 50.0463Z" fill="#2C74FF"/>
</g>
<g style="mix-blend-mode:multiply" opacity="0.5">
<path d="M200.716 51.5602C200.716 51.5602 196.76 60.8607 200.716 64.5294L197.61 61.6782C197.61 61.6782 195.91 59.1752 200.716 51.5602Z" fill="#2C74FF"/>
</g>
<path d="M206.231 31.9651C206.645 34.7438 206.506 37.5768 205.821 40.3017C205.821 40.3017 213.015 48.2094 220.082 40.3017C218.935 37.8704 217.943 35.3691 217.113 32.8129L206.231 31.9651Z" fill="url(#paint2_linear_8841_6498)"/>
<path d="M224.079 22.6596C224.043 23.1642 224.013 23.6688 223.942 24.0826C223.229 31.4907 220.178 34.3016 220.178 34.3016C218.008 38.2933 213.495 38.4951 213.495 38.4951C209.565 38.4951 207.121 35.3159 207.121 35.3159C204.748 32.6766 203.58 26.7925 203.119 24.0826V24.0423C202.983 23.1945 202.917 22.6848 202.917 22.6848C209.291 21.5393 217.199 13.1471 217.401 13.9243C218.787 18.8394 224.079 22.6596 224.079 22.6596Z" fill="url(#paint3_linear_8841_6498)"/>
<path d="M224.079 22.6596C224.043 23.1642 224.013 23.6688 223.942 24.0826C221.974 23.8808 216.111 17.9917 216.111 17.9917C213.025 20.969 203.119 24.0826 203.119 24.0826V24.0423C202.983 23.1945 202.917 22.6848 202.917 22.6848C209.291 21.5393 217.199 13.1471 217.401 13.9243C218.787 18.8394 224.079 22.6596 224.079 22.6596Z" fill="url(#paint4_linear_8841_6498)"/>
<path d="M415.142 65.0593H41.6201C33.8304 65.0593 27.5156 71.3584 27.5156 79.1286V280.757C27.5156 288.527 33.8304 294.826 41.6201 294.826H415.142C422.931 294.826 429.246 288.527 429.246 280.757V79.1286C429.246 71.3584 422.931 65.0593 415.142 65.0593Z" fill="#4D4D4D"/>
<path d="M393.13 71.8164H63.6373C60.2985 71.8164 57.5918 74.5163 57.5918 77.8468V282.039C57.5918 285.369 60.2985 288.069 63.6373 288.069H393.13C396.469 288.069 399.176 285.369 399.176 282.039V77.8468C399.176 74.5163 396.469 71.8164 393.13 71.8164Z" fill="white"/>
<path d="M195.293 288.069C195.293 288.069 190.234 274 174.268 281.034C167.064 263.195 146.231 265.391 142.725 279.061C130.846 251.543 99.1769 254.067 93.5007 274.267C82.3709 264.361 58.0877 265.941 63.6981 288.069H195.293Z" fill="url(#paint5_linear_8841_6498)"/>
<path d="M391.43 288.069C391.43 288.069 386.371 274 370.405 281.034C363.201 263.195 342.368 265.391 338.862 279.061C326.984 251.543 295.314 254.067 289.638 274.267C278.508 264.361 254.225 265.941 259.835 288.069H391.43Z" fill="url(#paint6_linear_8841_6498)"/>
<path d="M202.78 288.069C202.78 288.069 208.037 257.579 230.387 238.564C252.738 219.549 189.303 198.889 197.848 288.069H202.78Z" fill="url(#paint7_linear_8841_6498)"/>
<path d="M194.352 288.069C194.352 288.069 192.774 263.983 176.726 248.96C160.679 233.936 212.539 217.616 198.242 288.069H194.352Z" fill="url(#paint8_linear_8841_6498)"/>
<path d="M191.65 288.069C191.65 288.069 191.21 251.922 168.697 252.906C146.185 253.89 187.046 264.952 190.046 288.069H191.65Z" fill="url(#paint9_linear_8841_6498)"/>
<path d="M202.123 288.069C202.123 288.069 204.586 255.363 219.05 252.411C233.514 249.459 213.298 267.495 213.298 267.495C213.298 267.495 219.131 268.888 203.848 288.069H202.123Z" fill="url(#paint10_linear_8841_6498)"/>
<path d="M233.589 225.812C223.219 232.877 200.848 252.24 200.332 288.069H202.78C202.78 288.069 208.036 257.579 230.387 238.564C235.932 233.846 236.195 229.026 233.589 225.812Z" fill="url(#paint11_linear_8841_6498)"/>
<path d="M194.686 288.069C194.686 288.069 199.284 246.759 183.182 233.644C176.443 212.5 148.507 218.56 157.71 233.644C166.912 248.728 192.222 258.371 190.907 288.069H194.686Z" fill="url(#paint12_linear_8841_6498)"/>
<path d="M193.922 288.069C193.274 252.795 176.802 242.495 176.802 242.495C172.643 229.607 163.962 224.061 159.192 221.911C155.817 224.197 154.492 228.37 157.709 233.644C166.912 248.727 192.222 258.371 190.906 288.069H193.922Z" fill="url(#paint13_linear_8841_6498)"/>
<path d="M253.674 288.069C253.674 288.069 248.782 259.698 227.984 242.001C207.186 224.303 266.215 205.086 258.262 288.069H253.674Z" fill="url(#paint14_linear_8841_6498)"/>
<path d="M261.52 288.069C261.52 288.069 262.982 265.653 277.916 251.675C292.851 237.696 244.593 222.517 257.893 288.069H261.52Z" fill="url(#paint15_linear_8841_6498)"/>
<path d="M264.035 288.069C264.035 288.069 264.444 254.435 285.389 255.348C306.333 256.262 268.32 266.561 265.512 288.069H264.035Z" fill="url(#paint16_linear_8841_6498)"/>
<path d="M254.286 288.069C254.286 288.069 251.994 257.639 238.537 254.889C225.08 252.139 243.89 268.923 243.89 268.923C243.89 268.923 238.461 270.22 252.682 288.069H254.286Z" fill="url(#paint17_linear_8841_6498)"/>
<path d="M225.004 230.137C234.652 236.697 255.47 254.728 255.955 288.069H253.674C253.674 288.069 248.782 259.698 227.984 242.001C222.824 237.615 222.581 233.129 225.004 230.137Z" fill="url(#paint18_linear_8841_6498)"/>
<path d="M261.207 288.069C261.207 288.069 256.912 249.616 271.912 237.424C278.18 217.743 304.178 223.395 295.613 237.424C287.048 251.453 263.488 260.46 264.723 288.069H261.207Z" fill="url(#paint19_linear_8841_6498)"/>
<path d="M261.915 288.069C262.522 255.268 277.845 245.679 277.845 245.679C281.715 233.684 289.79 228.522 294.231 226.503C297.373 228.633 298.608 232.513 295.613 237.419C287.048 251.458 263.488 260.46 264.722 288.069H261.915Z" fill="url(#paint20_linear_8841_6498)"/>
<path d="M173.645 58.7968C175.153 57.7071 176.98 57.1463 178.841 57.2022C183.065 57.3536 184.815 61.1938 185.549 64.8828C185.675 65.5388 185.291 66.5279 185.195 67.1688C184.967 68.5919 184.997 70.0553 184.785 71.4683C184.335 74.4658 179.878 73.8906 177.571 73.3657C172.689 72.2353 171.024 66.7499 171.556 62.2637C171.647 61.5739 171.88 60.9103 172.24 60.3139C172.599 59.7176 173.077 59.2012 173.645 58.7968Z" fill="url(#paint21_linear_8841_6498)"/>
<path d="M256.962 59.9472C255.453 58.8596 253.627 58.3007 251.766 58.3576C247.537 58.509 245.792 62.3493 245.058 66.0382C244.932 66.6892 245.316 67.6833 245.412 68.3242C245.635 69.7473 245.609 71.2057 245.822 72.6237C246.272 75.6162 250.729 75.046 253.031 74.5161C257.918 73.3908 259.582 67.9054 259.051 63.4393C258.962 62.7453 258.731 62.077 258.371 61.4761C258.012 60.8753 257.532 60.3548 256.962 59.9472Z" fill="url(#paint22_linear_8841_6498)"/>
<path d="M253.208 288.069H203.994V266.243H251.65L253.208 288.069Z" fill="url(#paint23_linear_8841_6498)"/>
<path d="M240.151 278.456C220.375 286.681 203.994 275.932 203.994 275.932V268.888L204.91 267.374L240.151 278.456Z" fill="url(#paint24_linear_8841_6498)"/>
<path d="M246.116 228.688L261.551 220.851L254.974 207.66L250.836 207.181C248.438 207.039 234.47 205.863 234.47 205.863C231.871 205.395 229.189 205.839 226.881 207.12L216.946 206.363C215.615 204.93 206.246 207.524 206.246 207.524C203.357 208.265 198.804 208.291 198.804 208.291L198.829 208.26L194.155 209.371L192.222 223.445L202.907 229.263V229.304L204.5 230.147L204.399 231.449L200.979 271.128C202.389 272.28 203.886 273.321 205.457 274.242C205.457 274.242 228.89 291.94 250.122 271.471L254.089 266.269L246.389 230.036L246.116 228.688Z" fill="url(#paint25_linear_8841_6498)"/>
<path d="M231.11 213.196V213.297C231.072 213.621 230.994 213.94 230.878 214.245C226.906 217.934 220.664 215.633 220.664 215.633C219.823 215.409 219.091 214.891 218.599 214.175L218.564 214.109C217.274 212.383 216.935 209.441 216.935 206.802C216.946 205.342 217.048 203.884 217.239 202.437C217.273 201.984 217.33 201.532 217.411 201.085L229.517 199.697C229.79 200.575 230.023 201.392 230.23 202.164C230.66 203.822 230.966 205.508 231.146 207.211C231.427 209.197 231.415 211.213 231.11 213.196Z" fill="url(#paint26_linear_8841_6498)"/>
<path d="M207.895 186.945C207.895 186.945 207.353 190.159 202.127 191.547C200.266 192.051 198.434 195.776 197.382 197.229C194.93 200.631 192.785 204.243 190.972 208.023L192.227 208.054C193.279 208.119 195.212 208.19 198.804 208.291C198.804 208.291 203.139 223.213 192.227 223.43C192.227 223.43 181.745 218.888 180.829 218.626C180.829 218.626 169.229 215.598 173.64 210.304C173.64 210.304 180.829 199.202 195.652 186.485C195.652 186.485 199.041 173.365 209.311 171.604C209.286 171.619 205.724 178.689 207.895 186.945Z" fill="url(#paint27_linear_8841_6498)"/>
<path d="M269.762 217.899L256.699 222.567C256.699 222.567 243.576 219.035 250.836 207.176L254.969 206.06L256.026 205.752C256.026 205.752 246.627 194.65 244.897 192.561L242.488 190.326C242.488 190.326 238.821 189.715 236.549 187.757C236.549 187.757 236.519 177.876 233.903 172.295C233.903 172.295 240.384 173.173 244.725 183.054C254.337 189.685 264.02 196.992 271.077 206.464C273.966 210.355 275.357 215.865 269.762 217.899Z" fill="url(#paint28_linear_8841_6498)"/>
<path d="M192.227 208.054C189.546 214.21 184.8 213.13 184.8 213.13C189.353 213.065 190.972 208.023 190.972 208.023L192.227 208.054Z" fill="url(#paint29_linear_8841_6498)"/>
<path d="M261.465 212.555C260.888 212.182 256.274 209.103 254.949 206.06L256.006 205.752C256.006 205.752 258.262 210.526 261.465 212.555Z" fill="url(#paint30_linear_8841_6498)"/>
<path d="M231.161 207.226C229.198 208.584 222.991 211.965 216.95 206.822C216.961 205.362 217.063 203.905 217.254 202.457L230.245 202.185C230.675 203.84 230.981 205.525 231.161 207.226Z" fill="url(#paint31_linear_8841_6498)"/>
<g style="mix-blend-mode:multiply">
<path d="M209.256 233.8C208.846 233.563 205.714 231.701 204.399 231.433L204.505 230.147C204.505 230.147 206.741 230.888 209.256 233.8Z" fill="#FFDE00"/>
</g>
<g style="mix-blend-mode:multiply">
<path d="M246.389 230.01C244.263 230.703 242.18 231.52 240.151 232.458C241.984 230.966 243.986 229.694 246.115 228.668L246.389 230.01Z" fill="#FFDE00"/>
</g>
<path d="M235.942 187.227C235.942 187.227 240.095 188.433 235.213 194.756L234.47 187.227H235.942Z" fill="url(#paint32_linear_8841_6498)"/>
<path d="M209.762 194.282C209.762 194.282 204.536 190.674 207.895 186.945H210.197L209.762 194.282Z" fill="url(#paint33_linear_8841_6498)"/>
<path d="M208.401 178.875C208.401 178.875 205.618 206.156 224.16 207.085C224.16 207.085 239.22 206.156 235.289 178.875L222.095 173.567L208.401 178.875Z" fill="url(#paint34_linear_8841_6498)"/>
<path d="M208.623 188.59L213.556 183.458C213.556 183.458 222.814 188.504 225.429 188.59L227.827 189.518L226.203 185.36C226.203 185.36 233.159 190.406 235.815 190.321L229.087 179.976L222.212 174.672C222.212 174.672 215.518 175.091 215.306 175.176C215.094 175.262 210.075 178.507 210.181 178.603C210.287 178.699 208.623 188.59 208.623 188.59Z" fill="url(#paint35_linear_8841_6498)"/>
<path d="M208.623 188.59L213.733 181.192C213.733 181.192 215.929 187.202 226.643 190.321L224.16 181.192C224.16 181.192 225.252 185.35 235.831 190.321C235.831 190.321 238.684 183.044 235.937 175.873C235.937 175.873 230.372 159.694 210.455 170.559C210.455 170.559 202.365 176.105 208.623 188.59Z" fill="url(#paint36_linear_8841_6498)"/>
<path d="M91.8815 343.226H81.3992C80.6404 343.226 79.148 347.934 78.976 348.489C78.4259 350.067 78.1105 351.716 78.04 353.384C78.04 355.05 78.1716 357.078 79.75 358.022C81.5206 359.082 84.384 358.895 86.3975 359.38C88.6842 359.925 90.6117 361.186 92.9742 361.555C95.502 361.868 98.056 361.912 100.593 361.686C103.497 361.514 113.094 360.56 110.301 355.428C108.9 352.855 106.588 350.886 103.623 350.407C103.623 350.407 94.1631 347.793 91.8815 343.226Z" fill="url(#paint37_linear_8841_6498)"/>
<path d="M71.0891 347.47H62.1802C60.2932 352.819 59.1043 358.89 59.3825 364.557C59.4635 366.248 59.3826 368.246 60.0706 369.82C60.794 371.496 63.5815 371.334 65.0385 371.889C66.2471 372.297 67.3942 372.868 68.4483 373.585C69.364 374.256 70.0975 375.245 71.2257 375.604C73.6186 376.345 76.5123 376.335 78.9761 375.982C81.9103 375.568 85.74 374.17 87.0705 371.259C88.1986 368.735 86.3825 364.618 85.1835 362.382C84.3993 360.919 82.7754 359.082 81.1009 358.597C81.0806 358.582 73.0216 354.545 71.0891 347.47Z" fill="url(#paint38_linear_8841_6498)"/>
<path d="M71.9139 342.232C71.8431 343.685 71.8431 345.14 71.9139 346.597C71.9797 347.606 72.0505 348.616 72.182 349.625C72.3186 350.776 72.2174 351.825 71.1297 352.501C68.6002 354.015 64.9932 353.718 62.9898 351.452C62.5497 350.982 61.7402 349.898 61.7402 349.257V330.863L72.2832 335.768C72.3453 336.149 72.3368 336.539 72.2579 336.918C72.1871 337.766 72.0556 338.816 72.0556 338.937C71.9797 340.032 71.9493 341.147 71.9139 342.232Z" fill="url(#paint39_linear_8841_6498)"/>
<path d="M72.2577 336.918C72.1869 337.766 72.0554 338.816 72.0554 338.937C71.9845 340.052 71.9542 341.167 71.9188 342.252C69.7788 342.994 65.5748 343.943 61.7451 342.116V335.364L72.2577 336.918Z" fill="url(#paint40_linear_8841_6498)"/>
<path d="M91.9171 343.478C92.0537 344.629 91.9525 345.678 90.8648 346.319C88.3353 347.879 84.7282 347.576 82.7299 345.275C82.3201 344.836 81.4702 343.761 81.4702 343.11V324.746L92.0233 329.651C92.1599 329.722 91.7855 332.629 91.7855 332.8L91.6793 334.526C91.6135 335.843 91.5781 337.201 91.6135 338.563C91.6135 339.204 91.6135 339.845 91.6489 340.491C91.7147 341.495 91.7855 342.469 91.9171 343.478Z" fill="url(#paint41_linear_8841_6498)"/>
<path d="M91.6793 334.526C91.6135 335.843 91.5781 337.201 91.6135 338.563C89.7518 339.002 85.1683 339.815 81.4702 338.831V333.138L91.6793 334.526Z" fill="url(#paint42_linear_8841_6498)"/>
<path d="M99.3438 225.161H94.9475C94.2949 221.835 93.8294 219.963 93.8294 219.963L78.5108 222.421L79.7098 236.076L78.5108 252.457L72.3135 291.228V315.526L75.0504 332.457C78.8851 338.19 93.445 336.126 93.445 336.126C93.7687 329.061 98.0436 294.503 98.0436 294.503C98.4281 291.162 98.7114 287.852 98.9137 284.587C100.012 272.95 99.3438 225.161 99.3438 225.161Z" fill="url(#paint43_linear_8841_6498)"/>
<path d="M92.023 224.888C92.023 224.888 85.9977 278.38 83.2658 298.883C83.2658 298.883 78.0652 328.369 77.2405 337.655C77.2405 337.655 60.2524 345.573 55.4868 333.557C55.4868 333.557 60.8342 296.719 61.3806 284.683L58.9016 219.963L92.023 224.888Z" fill="url(#paint44_linear_8841_6498)"/>
<path d="M91.2393 231.817C91.2393 231.817 75.3642 239.139 60.0658 233.427L57.4907 228.037L64.801 225.161L91.2393 231.817Z" fill="#736357"/>
<path d="M108.576 114.171C107.794 111.951 106.776 109.821 105.541 107.817C104.114 105.38 102.278 104.653 99.6878 103.841C97.0166 102.993 94.6288 102.115 92.0993 103.957C90.4905 105.143 89.2763 106.934 88.2645 108.63C88.0352 109.02 87.8274 109.423 87.6423 109.836L86.5293 112.48C86.5293 112.48 88.7553 111.208 88.8615 110.79C88.9677 110.371 92.9947 108.771 92.9947 108.771C92.9947 108.771 95.079 107.762 95.9998 107.257C95.9998 107.257 93.5411 109.276 95.0234 112.177C98.5191 116.366 104.231 118.319 104.231 118.319C105.288 119.944 107.833 137.076 107.833 137.076L117.162 135.093L117.592 132.267L108.576 114.171Z" fill="url(#paint45_linear_8841_6498)"/>
<path d="M120.657 138.09C118.871 132.817 109.957 116.966 109.957 116.966C108.156 117.274 104.792 119.994 104.792 119.994C104.701 122.336 106.988 134.906 107.898 139.806C107.975 140.408 108.087 141.004 108.232 141.593L108.268 141.779C108.292 141.889 108.323 141.996 108.359 142.102L107.883 142.405L96.1159 150.086L93.5864 150.494C93.5164 150.498 93.4469 150.508 93.3789 150.525L73.7449 153.638L64.5881 160.643H64.5527L61.3656 163.08L59.1952 171.901L58.4465 193.893L57.971 208.336L57.2627 229.213C57.6705 229.378 58.0898 229.513 58.5173 229.617C63.4177 231.383 68.5134 232.553 73.6944 233.104H73.7298C92.8579 235.067 102.424 226.236 102.424 226.236L98.0585 177.957C98.0626 177.843 98.0507 177.729 98.0231 177.619C98.0231 177.25 98.868 176.403 99.4801 175.792L100.158 175.116C103.588 171.058 107.013 166.998 110.433 162.934C114.268 158.392 118.679 153.936 122.139 149.066C123.956 146.488 121.836 140.962 120.657 138.09Z" fill="url(#paint46_linear_8841_6498)"/>
<path d="M51.5156 229.849L58.4869 228.926C59.7668 231.842 61.1631 234.683 62.4481 237.595C63.4245 239.8 64.3554 242.137 65.1345 244.448C66.3081 247.93 60.7483 244.67 60.5814 242.359C60.9051 247.183 61.7702 251.725 61.4819 256.63C61.3959 258.109 60.976 260.445 59.6151 261.051C58.2542 261.656 56.1092 260.445 54.9507 259.648C53.4095 258.635 52.2465 257.143 51.6421 255.404C51.0401 253.501 51.3891 250.736 51.4751 248.753C51.5611 246.77 51.5055 244.822 51.4751 242.849C51.4498 239.266 51.4751 235.673 51.5004 232.09C51.5156 231.338 51.5156 230.596 51.5156 229.849Z" fill="url(#paint47_linear_8841_6498)"/>
<path style="mix-blend-mode:multiply" opacity="0.49" d="M114.308 146.786C112.954 146.653 111.655 146.179 110.534 145.41C109.413 144.64 108.506 143.6 107.898 142.385L108.374 142.082C108.374 142.082 110.337 145.837 114.308 146.786Z" fill="url(#paint48_linear_8841_6498)"/>
<path style="mix-blend-mode:multiply" opacity="0.24" d="M99.4854 175.812C98.8732 176.423 98.0284 177.271 98.0284 177.639C97.3859 173.849 96.2324 164.206 96.2324 164.206C97.1081 168.13 98.194 172.004 99.4854 175.812Z" fill="url(#paint49_linear_8841_6498)"/>
<path style="mix-blend-mode:multiply" opacity="0.49" d="M93.3792 150.505C91.3809 151.009 75.1313 155.178 64.5884 160.597L73.7452 153.593L93.3792 150.505Z" fill="url(#paint50_linear_8841_6498)"/>
<path d="M91.0418 157.337C90.6017 162.349 85.8867 163.898 81.6472 162.384C79.8429 161.801 78.1547 160.908 76.659 159.745C75.3032 158.665 73.745 157.247 73.4061 155.45C73.0975 153.936 73.6742 152.205 73.7451 150.646C73.7805 149.531 73.8462 148.415 73.912 147.295C74.0486 144.772 74.2864 142.289 74.5241 139.786V139.604C74.5241 139.473 74.6607 137.081 74.6911 137.081L88.5629 138.202C88.4668 140.467 88.4668 142.804 88.5983 145.14C88.6915 147.118 88.9419 149.086 89.347 151.024C89.3516 151.173 89.3736 151.32 89.4128 151.463C89.7162 152.6 90.1139 153.709 90.6017 154.779C90.9321 155.59 91.0822 156.463 91.0418 157.337Z" fill="url(#paint51_linear_8841_6498)"/>
<path d="M89.3471 151.014C86.9036 151.115 78.8649 151.014 73.9121 147.29C74.0487 144.767 74.2865 142.284 74.5243 139.781L88.5984 145.155C88.693 147.125 88.9433 149.084 89.3471 151.014Z" fill="url(#paint52_linear_8841_6498)"/>
<path d="M94.2291 124.253C93.7232 121.983 93.278 120.156 93.0757 119.348C93.0757 119.313 93.0402 119.247 93.0402 119.212C93.0099 119.01 92.9745 118.874 92.9745 118.874C92.9745 118.874 87.2072 116.946 86.7671 116.946C86.3269 116.946 73.2342 118.874 73.2342 118.874L65.499 123.779L65.924 129.275C66.1263 129.366 66.3043 129.504 66.4435 129.677C66.5827 129.85 66.6793 130.053 66.7255 130.27C66.7718 130.487 66.7664 130.712 66.7098 130.926C66.6531 131.141 66.5469 131.339 66.3995 131.505C66.3722 131.765 66.2857 132.015 66.1466 132.237C62.8532 144.823 73.2292 142.895 73.2292 142.895C75.3691 146.584 80.3472 147.825 84.2325 148.547C89.5951 149.556 93.6473 144.666 95.337 140.134C96.2705 137.75 96.4816 135.144 95.9441 132.641C95.4332 129.835 94.8514 127.039 94.2291 124.253Z" fill="url(#paint53_linear_8841_6498)"/>
<path d="M94.2291 124.253C87.7182 129.971 76.6592 124.894 76.6592 124.894L93.0402 119.212C93.0402 119.247 93.0756 119.313 93.0756 119.348C93.278 120.156 93.7232 121.982 94.2291 124.253Z" fill="url(#paint54_linear_8841_6498)"/>
<path d="M66.0303 130.91L73.2546 135.956C73.2546 135.956 71.6104 128.174 76.6745 124.899C76.6745 124.899 90.4805 127.448 93.8296 122.568C93.8296 122.568 100.077 119.157 96.5159 115.135C96.5159 115.135 86.1146 100.732 73.2445 112.475C73.2698 112.455 54.9815 120.837 66.0303 130.91Z" fill="url(#paint55_linear_8841_6498)"/>
<path d="M91.0419 157.337C90.6018 162.349 85.8868 163.898 81.6474 162.384C79.843 161.801 78.1549 160.908 76.6592 159.745C88.735 165.26 90.6018 154.774 90.6018 154.774C90.9329 155.587 91.0831 156.461 91.0419 157.337Z" fill="url(#paint56_linear_8841_6498)"/>
<path style="mix-blend-mode:multiply" opacity="0.22" d="M58.5176 229.637L58.9881 224.666L57.9763 208.356L57.2681 197.194L58.4519 193.914L62.4991 182.847L70.9476 174.495C70.9476 174.495 73.0471 186.061 65.3119 203.386C65.3119 203.386 64.8363 205.909 64.2293 209.441V209.477C64.123 210.017 64.0573 210.557 63.9561 211.167C63.3136 215.769 62.7369 228.249 73.725 233.124C68.5337 232.576 63.4277 231.405 58.5176 229.637Z" fill="url(#paint57_linear_8841_6498)"/>
<path d="M51.5159 237.681C51.5159 237.681 57.5361 237.454 61.3658 234.915C61.3658 234.915 60.5412 216.128 64.4012 203.007C64.4012 203.007 79.2797 166.638 64.1735 160.925C64.1735 160.925 51.526 164.226 51.526 184.139C51.5159 184.139 46.3102 221.008 51.5159 237.681Z" fill="url(#paint58_linear_8841_6498)"/>
<path d="M350.635 356.433L362.645 355.11C363.844 354.979 366.49 361.782 366.768 362.63C367.426 364.648 368.195 367.363 367.491 369.447C366.677 371.869 364.41 372.001 362.281 372.586C358.846 373.525 355.942 375.69 352.582 376.623C348.971 377.588 345.242 378.05 341.503 377.996C338.761 377.96 333.075 378.288 331.825 375.18C330.257 371.284 335.645 366.672 338.862 365.799C338.867 365.778 348.672 361.777 350.635 356.433Z" fill="url(#paint59_linear_8841_6498)"/>
<path d="M349.35 347.924L351.166 358.845C351.166 358.845 358.097 363.583 362.478 357.028V345.739L349.35 347.924Z" fill="url(#paint60_linear_8841_6498)"/>
<path d="M374.523 238.256C375.616 237.984 347.938 235.435 347.938 235.435C347.154 240.986 346.421 246.537 345.555 252.088C344.159 261.222 342.854 270.397 341.569 279.551C340.153 289.644 340.633 299.852 341.362 309.96C341.99 319.413 343.253 328.814 345.141 338.099C345.702 340.768 346.33 343.428 347.078 346.057C347.357 347.031 348.475 352.829 349.35 353.147C351.546 353.803 353.86 353.971 356.128 353.639C358.396 353.307 360.564 352.483 362.478 351.225C362.478 351.225 362.842 307.634 362.478 294.296C362.478 294.271 373.426 238.514 374.523 238.256Z" fill="url(#paint61_linear_8841_6498)"/>
<path d="M362.726 261.677L366.773 274.767L365.857 277.29L364.845 282.19C364.845 282.19 361.78 268.146 362.726 261.677Z" fill="url(#paint62_linear_8841_6498)"/>
<path d="M403.162 350.271L413.644 344.256C414.692 343.65 419.852 348.828 420.449 349.499C421.855 351.068 423.656 353.263 423.848 355.453C424.071 357.977 422.052 359.021 420.307 360.409C417.535 362.645 415.754 365.788 413.037 367.979C410.112 370.307 406.877 372.219 403.425 373.661C400.896 374.726 395.837 377.299 393.424 374.948C390.424 372.006 393.51 365.632 396.1 363.543C396.14 363.533 403.506 355.958 403.162 350.271Z" fill="url(#paint63_linear_8841_6498)"/>
<path d="M399.171 345.416L406.203 353.995C406.203 353.995 414.586 354.651 415.102 346.794L409.466 337.009L399.171 345.416Z" fill="url(#paint64_linear_8841_6498)"/>
<path d="M412.041 341.46C407.968 345.931 400.744 347.319 400.744 347.319C397.309 343.12 394.516 338.361 391.481 333.89C387.231 327.532 383.119 321.093 378.874 314.714C370.152 301.659 367.567 285.95 364.501 270.81C363.611 266.395 362.731 261.974 361.926 257.539C361.547 255.475 361.178 253.501 360.839 251.584C358.815 240.623 357.55 232.508 357.55 232.508H386.549L388.952 249.394L390.176 258.159L395.7 297.334L412.041 341.46Z" fill="url(#paint65_linear_8841_6498)"/>
<path d="M390.166 258.159C378.156 260.496 368.66 259.375 361.947 257.549C354.282 255.485 350.24 252.442 350.24 252.442L360.864 251.594L388.952 249.394L390.166 258.159Z" fill="url(#paint66_linear_8841_6498)"/>
<path d="M352.755 197.396C352.755 198.006 337.866 220.942 336.778 222.466C332.64 228.29 326.873 221.25 323.245 218C320.564 215.563 317.923 213.024 315.379 210.43C314.731 209.749 308.053 202.785 308.357 202.356C302.185 202.053 294.146 203.068 294.146 203.068C288.652 203.335 290.175 197.991 290.175 197.991C292.487 188.726 305.645 190.618 305.645 190.618C302.078 187.368 303.166 185.441 303.166 185.441C303.57 185.363 303.979 185.317 304.39 185.305C311.615 185.305 314.969 198.874 314.969 198.874L331.046 209.901L331.492 208.649H331.522L340.274 184.361L352.755 197.396Z" fill="url(#paint67_linear_8841_6498)"/>
<path d="M449.72 190.159C448.87 192.561 443.715 191.441 441.818 191.577C439.992 191.706 438.185 192.024 436.425 192.526C434.796 192.965 433.339 194.252 431.811 194.655C432.186 195.094 425.336 202.674 424.658 203.421C422.078 206.262 419.361 209.038 416.564 211.707C412.8 215.24 406.952 222.87 401.979 217.188C400.658 215.674 382.547 193.237 382.547 192.662L395.316 178.462L406.886 202.957L407.356 203.966L426.419 189.993C426.419 189.993 425.978 178.457 433.845 177.377C433.845 177.377 436.562 178.562 432.56 183.705C434.22 181.575 438.97 180.677 441.378 180.828C445.279 181.126 451.38 185.385 449.72 190.159Z" fill="url(#paint68_linear_8841_6498)"/>
<path d="M360.378 164.534C360.378 164.534 345.647 168.298 342.591 177.372C342.591 177.372 337.249 188.09 337.092 193.197L347.974 205.207L353.539 200.666L360.378 164.534Z" fill="url(#paint69_linear_8841_6498)"/>
<path d="M402.51 193.666C402.51 193.666 401.528 182.1 395.159 174.919C392.272 171.299 388.59 168.389 384.399 166.411C380.746 164.609 376.848 163.354 372.829 162.687C366.692 161.637 360.621 163.262 355.122 165.967C354.373 166.34 347.928 169.212 348.039 170.433C348.717 177.336 345.94 249.802 345.94 249.802C368.2 265.128 392.538 252.169 392.538 252.169L388.997 209.81L388.456 203.386L392.356 205.212C392.356 205.212 395.604 194.787 402.51 193.666Z" fill="url(#paint70_linear_8841_6498)"/>
<path d="M376.087 166.411C376.023 167.723 375.665 169.004 375.039 170.16C374.587 171.005 374.08 171.819 373.522 172.598C372.338 174.288 370.846 175.711 368.776 176.322C366.535 176.963 363.758 175.913 361.856 174.697C359.787 173.375 359.382 171.079 359.382 168.742C359.382 167.289 359.518 165.831 359.518 164.544C359.518 160.86 359.412 157.443 359.412 157.443L373.355 150.883L374.098 154.471C374.473 156.328 374.846 158.189 375.217 160.052C375.682 162.248 376.188 164.332 376.087 166.411Z" fill="url(#paint71_linear_8841_6498)"/>
<path d="M374.118 154.466L374.088 154.496C370.729 164.513 359.67 164.544 359.538 164.544C359.538 160.86 359.432 157.443 359.432 157.443L373.375 150.883L374.118 154.466Z" fill="url(#paint72_linear_8841_6498)"/>
<g style="mix-blend-mode:multiply">
<path d="M388.951 209.81C379.749 198.481 382.972 189.564 383.386 188.554C382.096 195.862 388.405 203.371 388.405 203.371L388.951 209.81Z" fill="#FF0033"/>
</g>
<path d="M349.243 137.283C349.582 140.311 349.82 143.394 349.947 146.452C350.149 151.398 349.673 155.253 353.432 158.998C356.361 161.93 359.908 162.505 363.55 160.486C367.193 158.468 373.218 154.067 373.886 149.531C373.886 149.349 374.392 148.935 374.513 148.794C376.825 145.862 377.129 141.996 377.963 138.489L378.252 137.283L373.886 131.828L365.387 127.185H353.245L349.198 130.597L349.243 137.283Z" fill="url(#paint73_linear_8841_6498)"/>
<path d="M349.618 141.149L353.493 136.481C353.493 136.481 358.769 139.509 366.783 135.779C366.783 135.779 372.348 135.007 374.903 137.909L370.769 128.321L355.506 126.1L349.618 129.592V141.149Z" fill="url(#paint74_linear_8841_6498)"/>
<path d="M376.81 142.43C376.729 141.482 376.304 140.538 375.439 140.185C374.058 139.62 373.344 141.401 372.909 142.415V137.147C372.119 136.291 371.137 135.634 370.043 135.232C368.948 134.829 367.774 134.691 366.616 134.831C366.616 134.831 355.8 137.424 353.882 134.013C353.882 134.013 350.341 138.631 349.785 143.828C349.785 143.828 342.798 134.689 347.316 121.039C347.316 121.039 357.297 122.951 363.737 121.039C363.737 121.039 376.172 117.219 380.432 133.872C380.432 133.872 382.127 143.132 376.142 146.008C376.39 145.897 376.597 144.151 376.688 143.768C376.799 143.331 376.84 142.88 376.81 142.43Z" fill="url(#paint75_linear_8841_6498)"/>
<g style="mix-blend-mode:multiply">
<path d="M348.065 179.94L347.468 204.521L340.891 197.36C340.891 197.36 344.372 199.455 345.647 197.976C345.616 197.976 347.549 183.478 348.065 179.94Z" fill="#FF0033"/>
</g>
<path d="M407.356 203.961C407.356 203.961 404.169 207.206 404.275 210.39C404.275 210.39 403.152 205.652 406.886 202.947L407.356 203.961Z" fill="url(#paint76_linear_8841_6498)"/>
<path d="M334.233 215.194C333.859 212.116 331.046 209.881 331.046 209.881L331.491 208.629H331.521C334.162 210.254 334.233 214.796 334.233 215.194Z" fill="url(#paint77_linear_8841_6498)"/>
<path d="M373.542 172.598C372.358 174.288 370.866 175.711 368.796 176.322C366.555 176.963 363.778 175.913 361.876 174.697C359.807 173.375 359.402 171.079 359.402 168.742H359.432C359.432 168.742 364.668 178.689 373.542 172.598Z" fill="url(#paint78_linear_8841_6498)"/>
<path d="M46.2595 109.821H7.32544C3.27971 109.821 0 113.092 0 117.128V142.087C0 146.123 3.27971 149.395 7.32544 149.395H46.2595C50.3053 149.395 53.585 146.123 53.585 142.087V117.128C53.585 113.092 50.3053 109.821 46.2595 109.821Z" fill="#5ED895"/>
<path d="M43.9935 147.83V155.798L35.8535 147.679L43.9935 147.83Z" fill="#5ED895"/>
<path d="M400.122 146.074H439.056C443.102 146.074 446.381 142.802 446.381 138.767V113.807C446.381 109.772 443.102 106.5 439.056 106.5H400.122C396.076 106.5 392.796 109.772 392.796 113.807V138.767C392.796 142.802 396.076 146.074 400.122 146.074Z" fill="#FF5956"/>
<path d="M405.227 144.51V152.478L413.367 144.363L405.227 144.51Z" fill="#FF5956"/>
<path d="M171.268 162.369C171.79 162.369 172.214 161.946 172.214 161.425C172.214 160.904 171.79 160.481 171.268 160.481C170.745 160.481 170.322 160.904 170.322 161.425C170.322 161.946 170.745 162.369 171.268 162.369Z" fill="#B3E0FF"/>
<path d="M248.539 107.646C248.54 107.931 248.456 108.211 248.297 108.449C248.139 108.687 247.913 108.873 247.649 108.983C247.385 109.093 247.094 109.122 246.813 109.067C246.532 109.012 246.273 108.875 246.071 108.673C245.868 108.471 245.729 108.214 245.673 107.934C245.617 107.654 245.645 107.364 245.755 107.1C245.864 106.836 246.049 106.61 246.288 106.451C246.526 106.292 246.806 106.208 247.092 106.208C247.475 106.208 247.842 106.359 248.113 106.628C248.384 106.898 248.537 107.264 248.539 107.646Z" fill="#B3E0FF"/>
<path d="M253.755 157.711C253.755 157.917 253.694 158.118 253.579 158.288C253.465 158.459 253.302 158.593 253.111 158.671C252.921 158.75 252.711 158.771 252.509 158.731C252.307 158.69 252.121 158.591 251.976 158.446C251.83 158.301 251.731 158.115 251.69 157.914C251.65 157.712 251.671 157.503 251.75 157.313C251.829 157.123 251.962 156.961 252.134 156.847C252.305 156.732 252.506 156.671 252.713 156.671C252.85 156.671 252.985 156.697 253.112 156.749C253.239 156.801 253.354 156.878 253.451 156.974C253.548 157.071 253.625 157.186 253.677 157.312C253.729 157.439 253.755 157.574 253.755 157.711Z" fill="#B3E0FF"/>
<path d="M326.457 183.72C326.46 183.965 326.39 184.205 326.257 184.41C326.123 184.615 325.931 184.776 325.705 184.872C325.48 184.968 325.23 184.995 324.989 184.95C324.748 184.905 324.526 184.79 324.351 184.618C324.175 184.447 324.055 184.228 324.005 183.988C323.955 183.749 323.977 183.499 324.069 183.273C324.16 183.046 324.318 182.851 324.52 182.713C324.723 182.575 324.962 182.501 325.208 182.499C325.535 182.497 325.85 182.625 326.084 182.853C326.318 183.082 326.452 183.393 326.457 183.72Z" fill="#B3E0FF"/>
<path d="M279.915 188.554C279.915 188.908 279.81 189.253 279.613 189.547C279.416 189.841 279.136 190.07 278.809 190.205C278.482 190.34 278.122 190.375 277.775 190.306C277.427 190.238 277.108 190.067 276.858 189.818C276.607 189.568 276.437 189.249 276.367 188.903C276.298 188.556 276.334 188.197 276.469 187.871C276.605 187.544 276.834 187.265 277.129 187.069C277.423 186.873 277.77 186.768 278.124 186.768C278.599 186.768 279.054 186.956 279.39 187.291C279.726 187.626 279.915 188.081 279.915 188.554Z" fill="#B3E0FF"/>
<path d="M134.332 184.341C134.332 184.797 134.196 185.243 133.942 185.622C133.688 186.001 133.327 186.297 132.905 186.471C132.482 186.646 132.017 186.692 131.569 186.603C131.12 186.514 130.709 186.294 130.385 185.971C130.062 185.649 129.842 185.238 129.752 184.791C129.663 184.343 129.709 183.879 129.884 183.458C130.059 183.037 130.355 182.677 130.736 182.423C131.116 182.17 131.563 182.034 132.02 182.034C132.633 182.036 133.22 182.279 133.653 182.711C134.087 183.144 134.331 183.729 134.332 184.341Z" fill="#B3E0FF"/>
<path d="M129.253 115.261C129.85 115.261 130.335 114.777 130.335 114.181C130.335 113.584 129.85 113.101 129.253 113.101C128.655 113.101 128.17 113.584 128.17 114.181C128.17 114.777 128.655 115.261 129.253 115.261Z" fill="#B3E0FF"/>
<path d="M164.478 90.917C164.479 91.2029 164.395 91.4826 164.236 91.7207C164.078 91.9588 163.852 92.1446 163.587 92.2544C163.323 92.3643 163.031 92.3933 162.75 92.3378C162.469 92.2823 162.211 92.1447 162.008 91.9426C161.806 91.7404 161.668 91.4828 161.612 91.2023C161.556 90.9219 161.585 90.6313 161.696 90.3674C161.806 90.1035 161.992 89.8781 162.231 89.7199C162.469 89.5617 162.75 89.4778 163.036 89.4788C163.226 89.4788 163.413 89.516 163.588 89.5882C163.763 89.6605 163.922 89.7665 164.056 89.9C164.19 90.0336 164.296 90.1921 164.368 90.3666C164.441 90.5411 164.478 90.7281 164.478 90.917Z" fill="#B3E0FF"/>
<path d="M326.346 102.968C326.347 103.147 326.295 103.322 326.196 103.471C326.097 103.621 325.955 103.737 325.79 103.806C325.624 103.875 325.441 103.894 325.265 103.859C325.089 103.824 324.927 103.738 324.8 103.611C324.673 103.485 324.587 103.323 324.552 103.148C324.518 102.972 324.536 102.79 324.605 102.625C324.674 102.459 324.791 102.318 324.941 102.219C325.09 102.121 325.266 102.068 325.446 102.069C325.685 102.069 325.914 102.164 326.083 102.332C326.251 102.501 326.346 102.729 326.346 102.968Z" fill="#B3E0FF"/>
<path d="M361.734 95.2367C361.734 95.6908 361.599 96.1347 361.346 96.5123C361.093 96.8899 360.734 97.1842 360.313 97.358C359.892 97.5318 359.43 97.5772 358.983 97.4886C358.537 97.4 358.126 97.1814 357.805 96.8602C357.483 96.5391 357.263 96.13 357.175 95.6846C357.086 95.2392 357.131 94.7775 357.306 94.358C357.48 93.9384 357.775 93.5798 358.153 93.3275C358.532 93.0752 358.977 92.9406 359.432 92.9406C360.043 92.9406 360.628 93.1825 361.06 93.6131C361.492 94.0437 361.734 94.6277 361.734 95.2367Z" fill="#B3E0FF"/>
<path d="M176.59 115.74C177.453 115.74 178.153 115.042 178.153 114.181C178.153 113.32 177.453 112.621 176.59 112.621C175.726 112.621 175.026 113.32 175.026 114.181C175.026 115.042 175.726 115.74 176.59 115.74Z" fill="#FFD300"/>
<path d="M154.542 151.983C154.542 152.117 154.502 152.248 154.428 152.359C154.353 152.471 154.247 152.557 154.123 152.608C153.998 152.659 153.862 152.673 153.73 152.646C153.599 152.62 153.478 152.555 153.383 152.46C153.289 152.365 153.225 152.244 153.199 152.112C153.173 151.981 153.187 151.844 153.24 151.721C153.292 151.597 153.379 151.492 153.491 151.419C153.604 151.345 153.735 151.306 153.869 151.307C153.958 151.307 154.046 151.325 154.128 151.359C154.21 151.393 154.284 151.443 154.347 151.505C154.41 151.568 154.459 151.643 154.493 151.725C154.526 151.807 154.543 151.895 154.542 151.983Z" fill="#FFD300"/>
<path d="M181.548 153.896C182.232 153.896 182.787 153.342 182.787 152.659C182.787 151.977 182.232 151.423 181.548 151.423C180.863 151.423 180.308 151.977 180.308 152.659C180.308 153.342 180.863 153.896 181.548 153.896Z" fill="#FFD300"/>
<path d="M263.412 149.016C263.412 149.159 263.37 149.299 263.29 149.417C263.21 149.536 263.097 149.629 262.964 149.683C262.832 149.738 262.686 149.752 262.546 149.723C262.405 149.695 262.276 149.626 262.175 149.524C262.074 149.423 262.006 149.294 261.979 149.154C261.951 149.013 261.966 148.868 262.022 148.736C262.077 148.605 262.171 148.492 262.291 148.413C262.41 148.335 262.551 148.293 262.694 148.294C262.885 148.296 263.068 148.372 263.202 148.507C263.337 148.643 263.412 148.825 263.412 149.016Z" fill="#FFD300"/>
<path d="M228.384 113.484C228.861 113.484 229.249 113.098 229.249 112.621C229.249 112.145 228.861 111.758 228.384 111.758C227.906 111.758 227.519 112.145 227.519 112.621C227.519 113.098 227.906 113.484 228.384 113.484Z" fill="#FFD300"/>
<path d="M310.957 124.374C310.957 124.647 310.876 124.913 310.724 125.14C310.573 125.366 310.357 125.543 310.104 125.647C309.852 125.752 309.574 125.779 309.306 125.726C309.039 125.673 308.792 125.541 308.599 125.349C308.406 125.156 308.275 124.911 308.221 124.643C308.168 124.376 308.195 124.099 308.3 123.847C308.404 123.596 308.582 123.38 308.809 123.229C309.036 123.078 309.303 122.997 309.576 122.997C309.942 122.997 310.294 123.142 310.553 123.4C310.812 123.659 310.957 124.009 310.957 124.374Z" fill="#FFD300"/>
<path d="M309.242 160.481C309.243 160.689 309.182 160.893 309.067 161.066C308.951 161.24 308.787 161.375 308.594 161.455C308.402 161.535 308.19 161.556 307.985 161.516C307.781 161.476 307.593 161.376 307.445 161.229C307.298 161.082 307.198 160.894 307.157 160.69C307.117 160.486 307.138 160.274 307.218 160.082C307.299 159.89 307.434 159.727 307.608 159.612C307.782 159.497 307.986 159.436 308.195 159.437C308.472 159.438 308.737 159.549 308.934 159.744C309.13 159.94 309.24 160.205 309.242 160.481Z" fill="#FFD300"/>
<path d="M154.031 182.499C154.031 182.665 153.982 182.826 153.89 182.964C153.797 183.102 153.666 183.209 153.513 183.273C153.359 183.336 153.19 183.353 153.028 183.32C152.865 183.288 152.715 183.208 152.598 183.091C152.48 182.974 152.4 182.825 152.368 182.662C152.335 182.5 152.352 182.331 152.415 182.178C152.479 182.025 152.587 181.894 152.725 181.802C152.863 181.71 153.025 181.661 153.191 181.661C153.414 181.661 153.628 181.749 153.785 181.906C153.943 182.064 154.031 182.277 154.031 182.499Z" fill="#5ED895"/>
<path d="M349.86 109.084C349.86 109.306 349.794 109.524 349.67 109.709C349.546 109.894 349.37 110.038 349.164 110.124C348.958 110.209 348.731 110.231 348.512 110.188C348.293 110.144 348.092 110.037 347.934 109.88C347.777 109.722 347.669 109.522 347.626 109.303C347.582 109.085 347.604 108.859 347.69 108.653C347.775 108.448 347.92 108.272 348.105 108.148C348.291 108.024 348.509 107.958 348.732 107.958C349.031 107.958 349.318 108.077 349.53 108.288C349.741 108.499 349.86 108.785 349.86 109.084Z" fill="#5ED895"/>
<path d="M135.384 163.348C135.384 163.68 135.285 164.005 135.1 164.282C134.914 164.558 134.651 164.774 134.343 164.901C134.035 165.028 133.696 165.061 133.369 164.995C133.042 164.93 132.742 164.77 132.506 164.534C132.271 164.299 132.111 163.999 132.046 163.672C131.982 163.346 132.016 163.008 132.144 162.701C132.273 162.394 132.489 162.132 132.767 161.948C133.045 161.764 133.371 161.666 133.704 161.667C133.925 161.667 134.144 161.711 134.348 161.795C134.552 161.88 134.738 162.004 134.894 162.16C135.05 162.316 135.173 162.501 135.258 162.705C135.342 162.909 135.385 163.127 135.384 163.348Z" fill="#FF5956"/>
<path d="M188.514 170.604C189.212 170.604 189.779 170.04 189.779 169.343C189.779 168.646 189.212 168.081 188.514 168.081C187.815 168.081 187.249 168.646 187.249 169.343C187.249 170.04 187.815 170.604 188.514 170.604Z" fill="#FF5956"/>
<path d="M213.581 153.275C213.581 153.575 213.492 153.867 213.326 154.116C213.159 154.365 212.922 154.559 212.644 154.674C212.367 154.788 212.062 154.818 211.767 154.76C211.473 154.702 211.203 154.557 210.99 154.346C210.778 154.134 210.634 153.864 210.575 153.57C210.517 153.277 210.547 152.972 210.661 152.696C210.776 152.419 210.971 152.183 211.22 152.016C211.47 151.85 211.763 151.761 212.064 151.761C212.466 151.761 212.852 151.921 213.137 152.205C213.421 152.489 213.581 152.874 213.581 153.275Z" fill="#5ED895"/>
<path d="M205.168 115.74C205.715 115.74 206.159 115.297 206.159 114.751C206.159 114.205 205.715 113.762 205.168 113.762C204.62 113.762 204.176 114.205 204.176 114.751C204.176 115.297 204.62 115.74 205.168 115.74Z" fill="#FF5956"/>
<path d="M148.684 106.207C148.684 106.359 148.639 106.507 148.554 106.634C148.47 106.76 148.35 106.858 148.209 106.916C148.069 106.974 147.914 106.989 147.765 106.96C147.616 106.93 147.479 106.857 147.371 106.75C147.264 106.643 147.19 106.506 147.161 106.357C147.131 106.208 147.146 106.054 147.205 105.914C147.263 105.774 147.361 105.654 147.488 105.57C147.614 105.485 147.763 105.44 147.915 105.44C148.119 105.44 148.315 105.521 148.459 105.665C148.603 105.809 148.684 106.004 148.684 106.207Z" fill="#FF5956"/>
<path d="M262.983 115.261C262.983 115.46 262.923 115.655 262.812 115.821C262.701 115.987 262.543 116.117 262.358 116.193C262.173 116.27 261.97 116.29 261.773 116.251C261.577 116.212 261.397 116.116 261.255 115.974C261.114 115.833 261.017 115.653 260.978 115.458C260.939 115.262 260.959 115.059 261.036 114.875C261.113 114.69 261.242 114.532 261.409 114.422C261.575 114.311 261.771 114.251 261.971 114.251C262.239 114.251 262.496 114.358 262.686 114.547C262.876 114.736 262.983 114.993 262.983 115.261Z" fill="#5ED895"/>
<path d="M292.056 115.261C292.056 115.46 291.997 115.655 291.886 115.821C291.775 115.987 291.617 116.117 291.432 116.193C291.247 116.27 291.043 116.29 290.847 116.251C290.651 116.212 290.471 116.116 290.329 115.974C290.188 115.833 290.091 115.653 290.052 115.458C290.013 115.262 290.033 115.059 290.11 114.875C290.186 114.69 290.316 114.532 290.482 114.422C290.649 114.311 290.844 114.251 291.045 114.251C291.313 114.251 291.57 114.358 291.76 114.547C291.95 114.736 292.056 114.993 292.056 115.261Z" fill="#FF5956"/>
<path d="M278.159 96.3116C278.16 96.4425 278.122 96.5708 278.05 96.6802C277.978 96.7896 277.875 96.8751 277.754 96.9259C277.633 96.9767 277.499 96.9905 277.371 96.9656C277.242 96.9407 277.123 96.8781 277.03 96.7858C276.937 96.6936 276.873 96.5758 276.847 96.4475C276.821 96.3191 276.834 96.1859 276.884 96.0648C276.934 95.9437 277.019 95.8402 277.128 95.7673C277.237 95.6944 277.365 95.6555 277.497 95.6555C277.583 95.6549 277.67 95.6713 277.75 95.704C277.83 95.7367 277.903 95.7849 277.965 95.8459C278.027 95.9069 278.076 95.9794 278.109 96.0593C278.142 96.1393 278.159 96.225 278.159 96.3116Z" fill="#FF5956"/>
<path d="M328.567 128.81C328.567 128.953 328.524 129.093 328.445 129.212C328.365 129.33 328.252 129.423 328.119 129.477C327.987 129.532 327.841 129.546 327.701 129.518C327.56 129.489 327.431 129.42 327.33 129.319C327.229 129.217 327.161 129.088 327.133 128.948C327.106 128.808 327.121 128.662 327.177 128.531C327.232 128.399 327.326 128.286 327.445 128.208C327.565 128.129 327.705 128.088 327.849 128.089C327.943 128.089 328.037 128.107 328.125 128.144C328.212 128.18 328.292 128.233 328.358 128.3C328.425 128.367 328.478 128.447 328.514 128.534C328.55 128.622 328.568 128.716 328.567 128.81Z" fill="#FF5956"/>
<path d="M290.741 156.671C290.742 157.083 290.621 157.485 290.392 157.828C290.164 158.17 289.838 158.438 289.458 158.596C289.077 158.754 288.658 158.796 288.253 158.716C287.848 158.637 287.477 158.439 287.185 158.148C286.893 157.858 286.694 157.487 286.613 157.084C286.532 156.68 286.573 156.262 286.73 155.882C286.888 155.502 287.155 155.177 287.498 154.948C287.841 154.719 288.244 154.597 288.657 154.597C289.208 154.597 289.738 154.816 290.129 155.204C290.519 155.593 290.74 156.121 290.741 156.671Z" fill="#5ED895"/>
<path d="M237.748 152.659C237.748 152.781 237.712 152.9 237.644 153.002C237.576 153.103 237.48 153.182 237.367 153.228C237.254 153.275 237.13 153.287 237.01 153.263C236.891 153.24 236.781 153.181 236.694 153.095C236.608 153.009 236.549 152.899 236.526 152.78C236.502 152.66 236.514 152.536 236.561 152.424C236.607 152.311 236.686 152.215 236.788 152.148C236.889 152.08 237.009 152.044 237.131 152.044C237.295 152.044 237.452 152.109 237.567 152.224C237.683 152.34 237.748 152.496 237.748 152.659Z" fill="#FF5956"/>
<path d="M333.672 146.796C333.672 146.995 333.613 147.19 333.502 147.356C333.39 147.522 333.232 147.652 333.047 147.728C332.863 147.804 332.659 147.824 332.463 147.785C332.267 147.746 332.086 147.65 331.945 147.509C331.803 147.368 331.707 147.188 331.668 146.992C331.629 146.797 331.649 146.594 331.725 146.409C331.802 146.225 331.932 146.067 332.098 145.956C332.264 145.845 332.46 145.786 332.66 145.786C332.929 145.786 333.186 145.893 333.376 146.082C333.565 146.271 333.672 146.528 333.672 146.796Z" fill="#FF5956"/>
<path d="M230.099 95.05L226.973 91.9313C226.848 91.812 226.682 91.7453 226.51 91.7453C226.337 91.7453 226.171 91.812 226.047 91.9313L223.74 94.2274C223.426 94.5374 223.003 94.7114 222.561 94.7114C222.12 94.7114 221.696 94.5374 221.382 94.2274L219.08 91.9263C218.954 91.8088 218.788 91.7436 218.615 91.7436C218.442 91.7436 218.276 91.8088 218.15 91.9263L215.848 94.2274C215.534 94.5374 215.111 94.7114 214.669 94.7114C214.227 94.7114 213.804 94.5374 213.49 94.2274L211.183 91.9263C211.058 91.8081 210.893 91.7422 210.72 91.7422C210.548 91.7422 210.383 91.8081 210.258 91.9263L207.951 94.2274C207.637 94.5374 207.213 94.7114 206.772 94.7114C206.33 94.7114 205.907 94.5374 205.593 94.2274L203.286 91.9313C203.16 91.8139 202.994 91.7486 202.821 91.7486C202.648 91.7486 202.482 91.8139 202.355 91.9313L200.054 94.2325C199.74 94.5425 199.316 94.7164 198.875 94.7164C198.433 94.7164 198.01 94.5425 197.696 94.2325L195.389 91.9313C195.264 91.8131 195.098 91.7472 194.926 91.7472C194.754 91.7472 194.588 91.8131 194.463 91.9313L191.337 95.05L190.624 94.3384L193.745 91.2198C194.064 90.9188 194.487 90.7512 194.926 90.7512C195.366 90.7512 195.788 90.9188 196.108 91.2198L198.409 93.5209C198.533 93.6426 198.699 93.7109 198.872 93.7109C199.046 93.7109 199.212 93.6426 199.335 93.5209L201.642 91.2198C201.96 90.918 202.382 90.7497 202.821 90.7497C203.26 90.7497 203.682 90.918 204 91.2198L206.306 93.5209C206.43 93.6426 206.596 93.7109 206.769 93.7109C206.943 93.7109 207.109 93.6426 207.232 93.5209L209.534 91.2198C209.853 90.9188 210.276 90.7512 210.715 90.7512C211.155 90.7512 211.577 90.9188 211.897 91.2198L214.199 93.5209C214.322 93.6426 214.488 93.7109 214.661 93.7109C214.835 93.7109 215.001 93.6426 215.124 93.5209L217.431 91.2198C217.749 90.9169 218.171 90.7478 218.61 90.7478C219.049 90.7478 219.471 90.9169 219.789 91.2198L222.096 93.5209C222.219 93.6426 222.385 93.7109 222.559 93.7109C222.732 93.7109 222.898 93.6426 223.021 93.5209L225.323 91.2198C225.642 90.9177 226.065 90.7493 226.505 90.7493C226.944 90.7493 227.367 90.9177 227.686 91.2198L230.812 94.3384L230.099 95.05Z" fill="#FF5956"/>
<path d="M296.002 177.301C295.936 177.301 295.87 177.289 295.808 177.264C295.746 177.238 295.69 177.201 295.643 177.155L292.517 174.036C292.392 173.917 292.226 173.85 292.054 173.85C291.881 173.85 291.715 173.917 291.591 174.036L289.289 176.337C288.971 176.639 288.549 176.807 288.11 176.807C287.671 176.807 287.249 176.639 286.931 176.337L284.63 174.036C284.504 173.918 284.337 173.851 284.164 173.851C283.991 173.851 283.825 173.918 283.699 174.036L281.397 176.337C281.079 176.639 280.657 176.807 280.218 176.807C279.779 176.807 279.357 176.639 279.039 176.337L276.732 174.036C276.608 173.917 276.442 173.85 276.27 173.85C276.097 173.85 275.931 173.917 275.807 174.036L272.68 177.155C272.635 177.208 272.579 177.25 272.516 177.281C272.453 177.311 272.385 177.328 272.315 177.331C272.246 177.333 272.176 177.322 272.111 177.296C272.046 177.271 271.988 177.232 271.938 177.183C271.889 177.134 271.85 177.075 271.825 177.011C271.799 176.946 271.788 176.876 271.79 176.807C271.793 176.737 271.81 176.669 271.841 176.607C271.871 176.544 271.914 176.488 271.967 176.443L275.088 173.325C275.406 173.021 275.83 172.852 276.27 172.852C276.71 172.852 277.133 173.021 277.451 173.325L279.753 175.621C279.877 175.74 280.043 175.807 280.216 175.807C280.388 175.807 280.554 175.74 280.678 175.621L282.985 173.325C283.302 173.02 283.725 172.851 284.164 172.851C284.604 172.851 285.026 173.02 285.343 173.325L287.65 175.621C287.774 175.74 287.94 175.807 288.113 175.807C288.285 175.807 288.451 175.74 288.576 175.621L290.877 173.325C291.196 173.021 291.619 172.852 292.059 172.852C292.499 172.852 292.922 173.021 293.24 173.325L296.372 176.443C296.466 176.538 296.519 176.666 296.519 176.799C296.519 176.932 296.466 177.06 296.372 177.155C296.323 177.203 296.265 177.24 296.202 177.266C296.138 177.291 296.07 177.303 296.002 177.301Z" fill="#FFD300"/>
<path d="M153.44 209.144C153.373 209.143 153.307 209.13 153.245 209.104C153.183 209.078 153.128 209.04 153.081 208.992L149.954 205.874C149.831 205.752 149.665 205.683 149.491 205.683C149.318 205.683 149.152 205.752 149.028 205.874L146.722 208.175C146.404 208.476 145.982 208.645 145.543 208.645C145.104 208.645 144.682 208.476 144.364 208.175L142.072 205.874C141.948 205.753 141.781 205.685 141.607 205.685C141.433 205.685 141.266 205.753 141.141 205.874L138.84 208.175C138.522 208.476 138.1 208.645 137.661 208.645C137.222 208.645 136.8 208.476 136.482 208.175L134.175 205.874C134.052 205.752 133.886 205.683 133.712 205.683C133.539 205.683 133.373 205.752 133.249 205.874L130.942 208.175C130.625 208.476 130.203 208.645 129.764 208.645C129.325 208.645 128.903 208.476 128.585 208.175L125.459 205.056C125.364 204.961 125.311 204.832 125.312 204.698C125.312 204.565 125.366 204.436 125.461 204.342C125.556 204.248 125.685 204.195 125.819 204.195C125.954 204.196 126.082 204.249 126.177 204.344L129.303 207.458C129.428 207.577 129.594 207.644 129.766 207.644C129.939 207.644 130.105 207.577 130.229 207.458L132.531 205.162C132.686 205.007 132.87 204.884 133.073 204.8C133.276 204.717 133.493 204.673 133.712 204.673C133.932 204.673 134.149 204.717 134.352 204.8C134.554 204.884 134.739 205.007 134.894 205.162L137.195 207.458C137.32 207.577 137.486 207.644 137.658 207.644C137.831 207.644 137.997 207.577 138.121 207.458L140.428 205.162C140.583 205.007 140.766 204.885 140.969 204.801C141.171 204.717 141.388 204.674 141.607 204.674C141.826 204.674 142.043 204.717 142.245 204.801C142.447 204.885 142.631 205.007 142.786 205.162L145.093 207.458C145.217 207.577 145.383 207.644 145.555 207.644C145.728 207.644 145.894 207.577 146.018 207.458L148.32 205.162C148.475 205.007 148.659 204.884 148.862 204.8C149.065 204.717 149.282 204.673 149.501 204.673C149.721 204.673 149.938 204.717 150.141 204.8C150.344 204.884 150.528 205.007 150.683 205.162L153.809 208.281C153.903 208.375 153.956 208.503 153.956 208.636C153.956 208.77 153.903 208.898 153.809 208.992C153.761 209.041 153.704 209.08 153.64 209.106C153.577 209.132 153.508 209.145 153.44 209.144Z" fill="#FFD300"/>
<path d="M341.478 116.235C341.411 116.235 341.345 116.222 341.284 116.197C341.222 116.172 341.166 116.135 341.119 116.088L337.992 112.97C337.931 112.909 337.859 112.86 337.78 112.827C337.7 112.795 337.615 112.778 337.529 112.778C337.443 112.778 337.358 112.795 337.279 112.827C337.199 112.86 337.127 112.909 337.066 112.97L334.764 115.266C334.446 115.569 334.023 115.738 333.583 115.738C333.143 115.738 332.72 115.569 332.402 115.266L330.1 112.97C330.039 112.909 329.966 112.86 329.887 112.827C329.807 112.794 329.721 112.777 329.635 112.777C329.548 112.777 329.463 112.794 329.383 112.827C329.303 112.86 329.23 112.909 329.169 112.97L326.867 115.266C326.551 115.57 326.128 115.74 325.689 115.74C325.249 115.74 324.827 115.57 324.51 115.266L321.383 112.147C321.33 112.102 321.287 112.046 321.257 111.984C321.227 111.921 321.21 111.853 321.207 111.783C321.204 111.714 321.216 111.644 321.241 111.58C321.267 111.515 321.305 111.456 321.355 111.407C321.404 111.358 321.463 111.319 321.528 111.294C321.593 111.269 321.662 111.257 321.732 111.26C321.802 111.262 321.87 111.279 321.933 111.31C321.996 111.34 322.051 111.383 322.097 111.436L325.223 114.554C325.349 114.673 325.516 114.739 325.689 114.739C325.862 114.739 326.028 114.673 326.154 114.554L328.456 112.253C328.769 111.943 329.193 111.769 329.635 111.769C330.076 111.769 330.5 111.943 330.813 112.253L333.12 114.554C333.245 114.674 333.411 114.74 333.583 114.74C333.756 114.74 333.922 114.674 334.046 114.554L336.338 112.253C336.651 111.943 337.075 111.769 337.517 111.769C337.958 111.769 338.382 111.943 338.695 112.253L341.822 115.372C341.869 115.419 341.907 115.474 341.933 115.536C341.958 115.597 341.971 115.663 341.971 115.73C341.971 115.797 341.958 115.863 341.933 115.924C341.907 115.986 341.869 116.041 341.822 116.088C341.73 116.179 341.607 116.231 341.478 116.235Z" fill="#FFD300"/>
<path d="M97.3252 97.1694C97.1918 97.1675 97.0645 97.113 96.9711 97.018L93.8446 93.9043C93.7835 93.8433 93.711 93.7949 93.6311 93.7619C93.5513 93.7288 93.4656 93.7118 93.3792 93.7118C93.2927 93.7118 93.2071 93.7288 93.1273 93.7619C93.0474 93.7949 92.9748 93.8433 92.9137 93.9043L90.6119 96.2055C90.4573 96.3602 90.2736 96.483 90.0713 96.5667C89.869 96.6505 89.6522 96.6936 89.4332 96.6936C89.2142 96.6936 88.9973 96.6505 88.795 96.5667C88.5927 96.483 88.409 96.3602 88.2544 96.2055L85.9475 93.9094C85.8868 93.8485 85.8147 93.8002 85.7353 93.7672C85.6558 93.7343 85.5706 93.7173 85.4846 93.7173C85.3986 93.7173 85.3134 93.7343 85.2339 93.7672C85.1545 93.8002 85.0824 93.8485 85.0217 93.9094L82.7148 96.2055C82.5602 96.3602 82.3765 96.483 82.1742 96.5667C81.9719 96.6505 81.7551 96.6936 81.536 96.6936C81.317 96.6936 81.1002 96.6505 80.8979 96.5667C80.6956 96.483 80.5119 96.3602 80.3573 96.2055L78.0555 93.9094C77.9944 93.8484 77.9218 93.7999 77.842 93.7669C77.7621 93.7339 77.6765 93.7169 77.59 93.7169C77.5036 93.7169 77.418 93.7339 77.3381 93.7669C77.2582 93.7999 77.1857 93.8484 77.1246 93.9094L74.0032 97.023C73.956 97.0711 73.8998 97.1094 73.8378 97.1358C73.7758 97.1621 73.7092 97.1761 73.6418 97.1768C73.5744 97.1775 73.5075 97.1649 73.4449 97.1399C73.3824 97.1148 73.3254 97.0776 73.2772 97.0306C73.2291 96.9835 73.1907 96.9275 73.1642 96.8656C73.1378 96.8038 73.1238 96.7373 73.1231 96.6701C73.1217 96.5343 73.1744 96.4035 73.2696 96.3064L76.3961 93.1878C76.7097 92.8777 77.1333 92.7038 77.5749 92.7038C78.0164 92.7038 78.44 92.8777 78.7536 93.1878L81.0605 95.4889C81.1837 95.6106 81.35 95.6789 81.5234 95.6789C81.6968 95.6789 81.8631 95.6106 81.9863 95.4889L84.2881 93.1878C84.6026 92.8774 85.0271 92.7034 85.4694 92.7034C85.9118 92.7034 86.3363 92.8774 86.6507 93.1878L88.9526 95.4889C89.0772 95.6097 89.2442 95.6774 89.418 95.6774C89.5918 95.6774 89.7588 95.6097 89.8834 95.4889L92.1853 93.1878C92.4989 92.8777 92.9225 92.7038 93.364 92.7038C93.8055 92.7038 94.2292 92.8777 94.5427 93.1878L97.6692 96.3064C97.7406 96.377 97.7892 96.4672 97.809 96.5655C97.8288 96.6637 97.8187 96.7657 97.7802 96.8582C97.7417 96.9508 97.6764 97.0298 97.5926 97.0853C97.5089 97.1407 97.4105 97.1699 97.31 97.1694H97.3252Z" fill="#FFD300"/>
<defs>
<linearGradient id="paint0_linear_8841_6498" x1="211.694" y1="-15.6173" x2="210.849" y2="77.211" gradientUnits="userSpaceOnUse">
<stop offset="0.23" stop-color="#38425A"/>
<stop offset="0.59" stop-color="#1A1F2C"/>
</linearGradient>
<linearGradient id="paint1_linear_8841_6498" x1="184.37" y1="38.1468" x2="246.11" y2="103.147" gradientUnits="userSpaceOnUse">
<stop offset="0.26" stop-color="#2CD6FF"/>
<stop offset="0.6" stop-color="#2C74FF"/>
</linearGradient>
<linearGradient id="paint2_linear_8841_6498" x1="205.821" y1="37.8895" x2="220.082" y2="37.8895" gradientUnits="userSpaceOnUse">
<stop offset="0.04" stop-color="#F8E8D8"/>
<stop offset="0.66" stop-color="#E2BB93"/>
</linearGradient>
<linearGradient id="paint3_linear_8841_6498" x1="203.559" y1="28.9473" x2="224.17" y2="24.1711" gradientUnits="userSpaceOnUse">
<stop offset="0.43" stop-color="#F8E8D8"/>
<stop offset="1" stop-color="#EFCAA6"/>
</linearGradient>
<linearGradient id="paint4_linear_8841_6498" x1="207.662" y1="31.0567" x2="219.568" y2="15.117" gradientUnits="userSpaceOnUse">
<stop offset="0.04" stop-color="#F8E8D8"/>
<stop offset="0.53" stop-color="#E2BB93"/>
</linearGradient>
<linearGradient id="paint5_linear_8841_6498" x1="62.8685" y1="273.414" x2="195.293" y2="273.414" gradientUnits="userSpaceOnUse">
<stop stop-color="#4B59D8"/>
<stop offset="1" stop-color="#5ED895"/>
</linearGradient>
<linearGradient id="paint6_linear_8841_6498" x1="96020.3" y1="18787" x2="130684" y2="18787" gradientUnits="userSpaceOnUse">
<stop stop-color="#4B59D8"/>
<stop offset="1" stop-color="#5ED895"/>
</linearGradient>
<linearGradient id="paint7_linear_8841_6498" x1="24234.8" y1="44957.1" x2="25224.5" y2="38314.3" gradientUnits="userSpaceOnUse">
<stop stop-color="#4B59D8"/>
<stop offset="1" stop-color="#5ED895"/>
</linearGradient>
<linearGradient id="paint8_linear_8841_6498" x1="16405.1" y1="36305.6" x2="14273.3" y2="29522.8" gradientUnits="userSpaceOnUse">
<stop stop-color="#4B59D8"/>
<stop offset="1" stop-color="#5ED895"/>
</linearGradient>
<linearGradient id="paint9_linear_8841_6498" x1="18194.5" y1="23594.7" x2="15186.4" y2="20755.7" gradientUnits="userSpaceOnUse">
<stop stop-color="#4B59D8"/>
<stop offset="1" stop-color="#5ED895"/>
</linearGradient>
<linearGradient id="paint10_linear_8841_6498" x1="13597.2" y1="23653.4" x2="15609.8" y2="22215.5" gradientUnits="userSpaceOnUse">
<stop stop-color="#4B59D8"/>
<stop offset="1" stop-color="#5ED895"/>
</linearGradient>
<linearGradient id="paint11_linear_8841_6498" x1="21283.6" y1="43717.5" x2="26050.8" y2="36021.9" gradientUnits="userSpaceOnUse">
<stop stop-color="#4B59D8"/>
<stop offset="1" stop-color="#5ED895"/>
</linearGradient>
<linearGradient id="paint12_linear_8841_6498" x1="24165.9" y1="47233.2" x2="17955.1" y2="38786.6" gradientUnits="userSpaceOnUse">
<stop stop-color="#4B59D8"/>
<stop offset="1" stop-color="#5ED895"/>
</linearGradient>
<linearGradient id="paint13_linear_8841_6498" x1="23112.2" y1="44326.9" x2="16336.7" y2="37372.5" gradientUnits="userSpaceOnUse">
<stop stop-color="#4B59D8"/>
<stop offset="1" stop-color="#5ED895"/>
</linearGradient>
<linearGradient id="paint14_linear_8841_6498" x1="-25544.5" y1="41788.1" x2="-26401.5" y2="36036.1" gradientUnits="userSpaceOnUse">
<stop stop-color="#4B59D8"/>
<stop offset="1" stop-color="#5ED895"/>
</linearGradient>
<linearGradient id="paint15_linear_8841_6498" x1="-17375.1" y1="33702.3" x2="-15528.6" y2="27830" gradientUnits="userSpaceOnUse">
<stop stop-color="#4B59D8"/>
<stop offset="1" stop-color="#5ED895"/>
</linearGradient>
<linearGradient id="paint16_linear_8841_6498" x1="-19271.4" y1="21970.5" x2="-16666.7" y2="19513.1" gradientUnits="userSpaceOnUse">
<stop stop-color="#4B59D8"/>
<stop offset="1" stop-color="#5ED895"/>
</linearGradient>
<linearGradient id="paint17_linear_8841_6498" x1="-14234.1" y1="22055.7" x2="-15976.9" y2="20810.7" gradientUnits="userSpaceOnUse">
<stop stop-color="#4B59D8"/>
<stop offset="1" stop-color="#5ED895"/>
</linearGradient>
<linearGradient id="paint18_linear_8841_6498" x1="-22557.3" y1="40550" x2="-26684.9" y2="33886.2" gradientUnits="userSpaceOnUse">
<stop stop-color="#4B59D8"/>
<stop offset="1" stop-color="#5ED895"/>
</linearGradient>
<linearGradient id="paint19_linear_8841_6498" x1="-25729.9" y1="43844.6" x2="-20351.3" y2="36531" gradientUnits="userSpaceOnUse">
<stop stop-color="#4B59D8"/>
<stop offset="1" stop-color="#5ED895"/>
</linearGradient>
<linearGradient id="paint20_linear_8841_6498" x1="-24636.7" y1="41246.6" x2="-18769.7" y2="35225.2" gradientUnits="userSpaceOnUse">
<stop stop-color="#4B59D8"/>
<stop offset="1" stop-color="#5ED895"/>
</linearGradient>
<linearGradient id="paint21_linear_8841_6498" x1="169.633" y1="58.8422" x2="191.784" y2="74.8261" gradientUnits="userSpaceOnUse">
<stop offset="0.28" stop-color="#F8E8D8"/>
<stop offset="0.75" stop-color="#EFCAA6"/>
</linearGradient>
<linearGradient id="paint22_linear_8841_6498" x1="246.717" y1="59.9371" x2="262.773" y2="81.9674" gradientUnits="userSpaceOnUse">
<stop offset="0.23" stop-color="#F8E8D8"/>
<stop offset="0.78" stop-color="#EFCAA6"/>
</linearGradient>
<linearGradient id="paint23_linear_8841_6498" x1="215.063" y1="261.964" x2="250.135" y2="303.935" gradientUnits="userSpaceOnUse">
<stop offset="0.36" stop-color="#5B4C7B"/>
<stop offset="0.58" stop-color="#452748"/>
</linearGradient>
<linearGradient id="paint24_linear_8841_6498" x1="206.736" y1="291.253" x2="229.885" y2="264.233" gradientUnits="userSpaceOnUse">
<stop stop-color="#38425A"/>
<stop offset="0.39" stop-color="#1A1F2C"/>
</linearGradient>
<linearGradient id="paint25_linear_8841_6498" x1="197.539" y1="206.282" x2="253.966" y2="267.958" gradientUnits="userSpaceOnUse">
<stop stop-color="#FFDD5B"/>
<stop offset="1" stop-color="#FF8800"/>
</linearGradient>
<linearGradient id="paint26_linear_8841_6498" x1="210.485" y1="202.654" x2="240.085" y2="212.863" gradientUnits="userSpaceOnUse">
<stop offset="0.26" stop-color="#F8E8D8"/>
<stop offset="0.78" stop-color="#E2BB93"/>
</linearGradient>
<linearGradient id="paint27_linear_8841_6498" x1="204.313" y1="177.341" x2="175.598" y2="236.894" gradientUnits="userSpaceOnUse">
<stop offset="0.35" stop-color="#F8E8D8"/>
<stop offset="1" stop-color="#EFCAA6"/>
</linearGradient>
<linearGradient id="paint28_linear_8841_6498" x1="248.023" y1="181.535" x2="272.806" y2="245.333" gradientUnits="userSpaceOnUse">
<stop offset="0.35" stop-color="#F8E8D8"/>
<stop offset="0.81" stop-color="#EFCAA6"/>
</linearGradient>
<linearGradient id="paint29_linear_8841_6498" x1="195.783" y1="212.182" x2="183.842" y2="209.56" gradientUnits="userSpaceOnUse">
<stop stop-color="#F8E8D8"/>
<stop offset="0.34" stop-color="#EFCAA6"/>
</linearGradient>
<linearGradient id="paint30_linear_8841_6498" x1="250.497" y1="212.848" x2="264.21" y2="206.534" gradientUnits="userSpaceOnUse">
<stop offset="0.22" stop-color="#F8E8D8"/>
<stop offset="0.62" stop-color="#EFCAA6"/>
</linearGradient>
<linearGradient id="paint31_linear_8841_6498" x1="221.488" y1="213.408" x2="226.005" y2="199.09" gradientUnits="userSpaceOnUse">
<stop stop-color="#F8E8D8"/>
<stop offset="0.54" stop-color="#E2BB93"/>
</linearGradient>
<linearGradient id="paint32_linear_8841_6498" x1="227.934" y1="192.839" x2="242.413" y2="188.945" gradientUnits="userSpaceOnUse">
<stop offset="0.34" stop-color="#F8E8D8"/>
<stop offset="0.88" stop-color="#E2BB93"/>
</linearGradient>
<linearGradient id="paint33_linear_8841_6498" x1="211.568" y1="190.946" x2="201.108" y2="188.751" gradientUnits="userSpaceOnUse">
<stop offset="0.04" stop-color="#F8E8D8"/>
<stop offset="0.53" stop-color="#E2BB93"/>
</linearGradient>
<linearGradient id="paint34_linear_8841_6498" x1="17455" y1="15843.6" x2="18970.5" y2="15843.6" gradientUnits="userSpaceOnUse">
<stop offset="0.35" stop-color="#F8E8D8"/>
<stop offset="1" stop-color="#EFCAA6"/>
</linearGradient>
<linearGradient id="paint35_linear_8841_6498" x1="221.645" y1="199.248" x2="223.372" y2="170.013" gradientUnits="userSpaceOnUse">
<stop stop-color="#F8E8D8"/>
<stop offset="0.26" stop-color="#E2BB93"/>
</linearGradient>
<linearGradient id="paint36_linear_8841_6498" x1="218.615" y1="168.036" x2="225.926" y2="198.771" gradientUnits="userSpaceOnUse">
<stop stop-color="#38425A"/>
<stop offset="0.63" stop-color="#1A1F2C"/>
</linearGradient>
<linearGradient id="paint37_linear_8841_6498" x1="56.3925" y1="364.305" x2="113.178" y2="345.61" gradientUnits="userSpaceOnUse">
<stop offset="0.41" stop-color="#0A374A"/>
<stop offset="0.66" stop-color="#084E77"/>
</linearGradient>
<linearGradient id="paint38_linear_8841_6498" x1="24.526" y1="365.258" x2="107.618" y2="358.884" gradientUnits="userSpaceOnUse">
<stop offset="0.47" stop-color="#0A374A"/>
<stop offset="0.72" stop-color="#084E77"/>
</linearGradient>
<linearGradient id="paint39_linear_8841_6498" x1="79.386" y1="344.296" x2="52.2776" y2="340.371" gradientUnits="userSpaceOnUse">
<stop offset="0.35" stop-color="#F8E8D8"/>
<stop offset="0.73" stop-color="#EFCAA6"/>
</linearGradient>
<linearGradient id="paint40_linear_8841_6498" x1="65.4078" y1="347.298" x2="68.353" y2="329.538" gradientUnits="userSpaceOnUse">
<stop stop-color="#F8E8D8"/>
<stop offset="0.44" stop-color="#EFCAA6"/>
</linearGradient>
<linearGradient id="paint41_linear_8841_6498" x1="105.293" y1="339.643" x2="76.906" y2="334.76" gradientUnits="userSpaceOnUse">
<stop offset="0.36" stop-color="#F8E8D8"/>
<stop offset="0.8" stop-color="#E2BB93"/>
</linearGradient>
<linearGradient id="paint42_linear_8841_6498" x1="85.6793" y1="344.18" x2="87.1543" y2="329.852" gradientUnits="userSpaceOnUse">
<stop stop-color="#F8E8D8"/>
<stop offset="0.2" stop-color="#E2BB93"/>
</linearGradient>
<linearGradient id="paint43_linear_8841_6498" x1="27.6829" y1="299.393" x2="169.724" y2="250.123" gradientUnits="userSpaceOnUse">
<stop offset="0.29" stop-color="#736357"/>
<stop offset="0.59" stop-color="#C7B299"/>
</linearGradient>
<linearGradient id="paint44_linear_8841_6498" x1="9984.18" y1="78341.3" x2="17762.3" y2="78182.6" gradientUnits="userSpaceOnUse">
<stop offset="0.29" stop-color="#736357"/>
<stop offset="0.59" stop-color="#C7B299"/>
</linearGradient>
<linearGradient id="paint45_linear_8841_6498" x1="113.959" y1="104.764" x2="92.5536" y2="137.423" gradientUnits="userSpaceOnUse">
<stop offset="0.35" stop-color="#F8E8D8"/>
<stop offset="0.76" stop-color="#EFCAA6"/>
</linearGradient>
<linearGradient id="paint46_linear_8841_6498" x1="24.4955" y1="268.242" x2="120.802" y2="144.175" gradientUnits="userSpaceOnUse">
<stop stop-color="#4B59D8"/>
<stop offset="0.78" stop-color="#5ED895"/>
</linearGradient>
<linearGradient id="paint47_linear_8841_6498" x1="61.9928" y1="260.087" x2="46.2837" y2="215.659" gradientUnits="userSpaceOnUse">
<stop offset="0.24" stop-color="#F8E8D8"/>
<stop offset="0.78" stop-color="#EFCAA6"/>
</linearGradient>
<linearGradient id="paint48_linear_8841_6498" x1="46.639" y1="147.426" x2="77.7414" y2="145.981" gradientUnits="userSpaceOnUse">
<stop offset="0.46" stop-color="#4B59D8"/>
<stop offset="0.78" stop-color="#5ED895"/>
</linearGradient>
<linearGradient id="paint49_linear_8841_6498" x1="1361.46" y1="6003.33" x2="1494.98" y2="5990.58" gradientUnits="userSpaceOnUse">
<stop offset="0.46" stop-color="#4B59D8"/>
<stop offset="0.78" stop-color="#5ED895"/>
</linearGradient>
<linearGradient id="paint50_linear_8841_6498" x1="8823.9" y1="4203.26" x2="10567.6" y2="3972.72" gradientUnits="userSpaceOnUse">
<stop offset="0.46" stop-color="#4B59D8"/>
<stop offset="0.78" stop-color="#5ED895"/>
</linearGradient>
<linearGradient id="paint51_linear_8841_6498" x1="73.315" y1="150.005" x2="91.0519" y2="150.005" gradientUnits="userSpaceOnUse">
<stop offset="0.04" stop-color="#F8E8D8"/>
<stop offset="0.84" stop-color="#E2BB93"/>
</linearGradient>
<linearGradient id="paint52_linear_8841_6498" x1="76.8059" y1="153.043" x2="85.926" y2="139.376" gradientUnits="userSpaceOnUse">
<stop stop-color="#F8E8D8"/>
<stop offset="0.37" stop-color="#E2BB93"/>
</linearGradient>
<linearGradient id="paint53_linear_8841_6498" x1="67.4012" y1="146.331" x2="96.5117" y2="116.329" gradientUnits="userSpaceOnUse">
<stop offset="0.34" stop-color="#F8E8D8"/>
<stop offset="1" stop-color="#EFCAA6"/>
</linearGradient>
<linearGradient id="paint54_linear_8841_6498" x1="86.0183" y1="131.565" x2="84.8605" y2="117.43" gradientUnits="userSpaceOnUse">
<stop offset="0.04" stop-color="#F8E8D8"/>
<stop offset="0.45" stop-color="#E2BB93"/>
</linearGradient>
<linearGradient id="paint55_linear_8841_6498" x1="88.7149" y1="106.546" x2="70.5528" y2="135.765" gradientUnits="userSpaceOnUse">
<stop offset="0.16" stop-color="#38425A"/>
<stop offset="0.63" stop-color="#1A1F2C"/>
</linearGradient>
<linearGradient id="paint56_linear_8841_6498" x1="81.5866" y1="153.23" x2="88.5303" y2="166.98" gradientUnits="userSpaceOnUse">
<stop stop-color="#F8E8D8"/>
<stop offset="0.48" stop-color="#BC957A"/>
</linearGradient>
<linearGradient id="paint57_linear_8841_6498" x1="5149.7" y1="28154.5" x2="7098.03" y2="28404" gradientUnits="userSpaceOnUse">
<stop offset="0.46" stop-color="#4B59D8"/>
<stop offset="0.78" stop-color="#5ED895"/>
</linearGradient>
<linearGradient id="paint58_linear_8841_6498" x1="4948.85" y1="36453.2" x2="9445.83" y2="36611.8" gradientUnits="userSpaceOnUse">
<stop stop-color="#4B59D8"/>
<stop offset="0.78" stop-color="#5ED895"/>
</linearGradient>
<linearGradient id="paint59_linear_8841_6498" x1="334.163" y1="358.47" x2="382.868" y2="384.665" gradientUnits="userSpaceOnUse">
<stop offset="0.33" stop-color="#444778"/>
<stop offset="0.55" stop-color="#2E2245"/>
</linearGradient>
<linearGradient id="paint60_linear_8841_6498" x1="342.105" y1="347.526" x2="387.451" y2="362.819" gradientUnits="userSpaceOnUse">
<stop offset="0.15" stop-color="#F8E8D8"/>
<stop offset="0.61" stop-color="#E2BB93"/>
</linearGradient>
<linearGradient id="paint61_linear_8841_6498" x1="324.009" y1="276.563" x2="391.362" y2="310.661" gradientUnits="userSpaceOnUse">
<stop offset="0.36" stop-color="#444778"/>
<stop offset="0.6" stop-color="#2E2245"/>
</linearGradient>
<linearGradient id="paint62_linear_8841_6498" x1="377.574" y1="262.827" x2="354.09" y2="278.424" gradientUnits="userSpaceOnUse">
<stop offset="0.4" stop-color="#444778"/>
<stop offset="0.77" stop-color="#2E2245"/>
</linearGradient>
<linearGradient id="paint63_linear_8841_6498" x1="31280.3" y1="25732.2" x2="34722" y2="26015.9" gradientUnits="userSpaceOnUse">
<stop offset="0.33" stop-color="#444778"/>
<stop offset="0.55" stop-color="#2E2245"/>
</linearGradient>
<linearGradient id="paint64_linear_8841_6498" x1="393.029" y1="345.492" x2="431.822" y2="345.492" gradientUnits="userSpaceOnUse">
<stop offset="0.15" stop-color="#F8E8D8"/>
<stop offset="0.66" stop-color="#E2BB93"/>
</linearGradient>
<linearGradient id="paint65_linear_8841_6498" x1="340.729" y1="275.716" x2="445.815" y2="304.041" gradientUnits="userSpaceOnUse">
<stop offset="0.27" stop-color="#444778"/>
<stop offset="0.61" stop-color="#2E2245"/>
</linearGradient>
<linearGradient id="paint66_linear_8841_6498" x1="37619.7" y1="5904.89" x2="37682.4" y2="6711.93" gradientUnits="userSpaceOnUse">
<stop offset="0.27" stop-color="#444778"/>
<stop offset="0.61" stop-color="#2E2245"/>
</linearGradient>
<linearGradient id="paint67_linear_8841_6498" x1="318.829" y1="189.316" x2="335.078" y2="250.241" gradientUnits="userSpaceOnUse">
<stop offset="0.23" stop-color="#F8E8D8"/>
<stop offset="0.61" stop-color="#EFCAA6"/>
</linearGradient>
<linearGradient id="paint68_linear_8841_6498" x1="421.223" y1="181.404" x2="393.141" y2="237.071" gradientUnits="userSpaceOnUse">
<stop offset="0.27" stop-color="#F8E8D8"/>
<stop offset="1" stop-color="#EFCAA6"/>
</linearGradient>
<linearGradient id="paint69_linear_8841_6498" x1="373.926" y1="190.941" x2="323.712" y2="175.439" gradientUnits="userSpaceOnUse">
<stop stop-color="#FF5956"/>
<stop offset="1" stop-color="#FF0033"/>
</linearGradient>
<linearGradient id="paint70_linear_8841_6498" x1="57281.7" y1="52847.1" x2="47438.2" y2="48628.3" gradientUnits="userSpaceOnUse">
<stop stop-color="#FF5956"/>
<stop offset="1" stop-color="#FF0033"/>
</linearGradient>
<linearGradient id="paint71_linear_8841_6498" x1="386.792" y1="166.623" x2="350.064" y2="160.173" gradientUnits="userSpaceOnUse">
<stop offset="0.35" stop-color="#F8E8D8"/>
<stop offset="0.73" stop-color="#E2BB93"/>
</linearGradient>
<linearGradient id="paint72_linear_8841_6498" x1="374.194" y1="163.908" x2="359.077" y2="151.745" gradientUnits="userSpaceOnUse">
<stop stop-color="#F8E8D8"/>
<stop offset="0.49" stop-color="#E2BB93"/>
</linearGradient>
<linearGradient id="paint73_linear_8841_6498" x1="390.161" y1="146.609" x2="303.239" y2="139.808" gradientUnits="userSpaceOnUse">
<stop offset="0.22" stop-color="#F8E8D8"/>
<stop offset="0.69" stop-color="#EFCAA6"/>
</linearGradient>
<linearGradient id="paint74_linear_8841_6498" x1="361.997" y1="148.976" x2="362.435" y2="123.471" gradientUnits="userSpaceOnUse">
<stop offset="0.3" stop-color="#F8E8D8"/>
<stop offset="0.49" stop-color="#E2BB93"/>
</linearGradient>
<linearGradient id="paint75_linear_8841_6498" x1="365.169" y1="165.619" x2="361.514" y2="104.44" gradientUnits="userSpaceOnUse">
<stop offset="0.55" stop-color="#6E5451"/>
<stop offset="0.75" stop-color="#977471"/>
</linearGradient>
<linearGradient id="paint76_linear_8841_6498" x1="413.245" y1="211.268" x2="398.639" y2="202.46" gradientUnits="userSpaceOnUse">
<stop stop-color="#F8E8D8"/>
<stop offset="0.74" stop-color="#EFCAA6"/>
</linearGradient>
<linearGradient id="paint77_linear_8841_6498" x1="3235.06" y1="3724.63" x2="2923.63" y2="3633.69" gradientUnits="userSpaceOnUse">
<stop stop-color="#F8E8D8"/>
<stop offset="0.74" stop-color="#EFCAA6"/>
</linearGradient>
<linearGradient id="paint78_linear_8841_6498" x1="372.808" y1="162.192" x2="356.752" y2="183.794" gradientUnits="userSpaceOnUse">
<stop stop-color="#F8E8D8"/>
<stop offset="0.67" stop-color="#BC957A"/>
</linearGradient>
</defs>
</svg>
