<svg width="44" height="38" viewBox="0 0 44 38" fill="none" xmlns="http://www.w3.org/2000/svg">
<path fill-rule="evenodd" clip-rule="evenodd" d="M23.9994 22C23.9994 23.104 23.1034 24 21.9994 24C20.8954 24 19.9994 23.104 19.9994 22V14C19.9994 12.896 20.8954 12 21.9994 12C23.1034 12 23.9994 12.896 23.9994 14V22ZM21.9994 30C20.8954 30 19.9994 29.104 19.9994 28C19.9994 26.896 20.8954 26 21.9994 26C23.1034 26 23.9994 26.896 23.9994 28C23.9994 29.104 23.1034 30 21.9994 30V30ZM43.1216 28.606L27.7776 3.168C26.5796 1.184 24.4196 0 21.9996 0C19.5796 0 17.4196 1.184 16.2216 3.168L0.877627 28.606C-0.258373 30.492 -0.292373 32.76 0.787627 34.672C1.94563 36.726 4.19563 38 6.65563 38H37.3436C39.8036 38 42.0536 36.726 43.2116 34.672C44.2916 32.76 44.2576 30.492 43.1216 28.606V28.606Z" fill="#D81F26"/>
</svg>
